<svg width="120" height="18" viewBox="0 0 140 18" fill="none" xmlns="http://www.w3.org/2000/svg">
<path d="M37.4433 2.04567V4.21081C36.7992 3.49461 36.0193 2.92777 35.1537 2.5468C34.288 2.16582 33.3559 1.97914 32.4173 1.9988C31.5478 1.97453 30.6828 2.13946 29.8771 2.48319C29.0714 2.82693 28.3423 3.342 27.7359 3.99593C27.1221 4.65212 26.6411 5.43162 26.3217 6.28761C26.0023 7.1436 25.8512 8.05843 25.8775 8.97718C25.8514 9.89922 26.0025 10.8173 26.3218 11.6769C26.6411 12.5364 27.122 13.3199 27.7359 13.9805C28.3437 14.631 29.0735 15.1421 29.8793 15.4817C30.6851 15.8213 31.5493 15.9819 32.4173 15.9534C33.3565 15.9777 34.29 15.7931 35.1562 15.4119C36.0225 15.0306 36.8019 14.4613 37.4433 13.7414V15.9071C36.0296 17.1206 34.2432 17.7535 32.4173 17.6878C31.3224 17.7117 30.234 17.5046 29.2168 17.0788C28.1997 16.653 27.2745 16.0173 26.4963 15.2093C25.7074 14.4 25.0861 13.4288 24.6712 12.3564C24.2564 11.2841 24.0569 10.1335 24.0853 8.97665C24.057 7.82341 24.2566 6.67651 24.6715 5.60807C25.0865 4.53963 25.7077 3.57276 26.4963 2.76827C27.2733 1.95689 28.1977 1.3173 29.2148 0.887397C30.2319 0.457496 31.3209 0.24603 32.4173 0.265528C34.2432 0.199649 36.0295 0.832364 37.4433 2.04567Z" fill="#12899D"/>
<path d="M49.3992 7.0266V5.2217H51.0975V17.3499H49.3992V15.5455C48.7337 16.7726 47.3795 17.7112 45.291 17.7112C44.5151 17.7279 43.7445 17.5738 43.0289 17.2587C42.3134 16.9437 41.6689 16.4746 41.137 15.882C40.0446 14.6301 39.4387 12.9947 39.4387 11.2979C39.4387 9.60104 40.0446 7.96566 41.137 6.71376C41.6677 6.11794 42.3114 5.64526 43.0269 5.32614C43.7423 5.00703 44.5136 4.84855 45.291 4.86093C47.3775 4.86093 48.7337 5.79946 49.3992 7.0266ZM48.3665 14.7033C48.7776 14.2474 49.0986 13.7109 49.3113 13.1245C49.5239 12.5381 49.624 11.9134 49.6057 11.2863C49.626 10.6626 49.5269 10.041 49.314 9.45823C49.1012 8.87546 48.779 8.34338 48.3665 7.8935C47.9781 7.44674 47.5023 7.09312 46.9716 6.8568C46.4409 6.62048 45.8678 6.50702 45.2915 6.52416C44.7293 6.51221 44.1713 6.62847 43.6561 6.8649C43.1409 7.10133 42.6809 7.4523 42.3079 7.8935C41.5136 8.82293 41.094 10.0392 41.1375 11.2863C41.0981 12.5401 41.5167 13.7623 42.3079 14.7033C42.6853 15.1374 43.1466 15.4822 43.6611 15.7146C44.1756 15.947 44.7314 16.0617 45.2915 16.0511C45.8657 16.0668 46.4366 15.9548 46.9667 15.7225C47.4967 15.4902 47.9738 15.1429 48.3665 14.7033Z" fill="#12899D"/>
<path d="M63.1434 7.02631V0.577232H64.8417V17.3496H63.1434V15.5452C62.4779 16.7723 61.1237 17.7109 59.0357 17.7109C58.2598 17.7277 57.4891 17.5736 56.7736 17.2585C56.0581 16.9434 55.4135 16.4744 54.8817 15.8817C54.3227 15.2716 53.8847 14.5511 53.5932 13.7621C53.3017 12.9731 53.1624 12.1313 53.1835 11.2855C53.1625 10.4433 53.3019 9.6052 53.5935 8.82018C53.8851 8.03515 54.3231 7.31895 54.8817 6.71347C55.4124 6.11762 56.0561 5.64492 56.7716 5.3258C57.487 5.00669 58.2583 4.84823 59.0357 4.86064C61.1257 4.86064 62.4799 5.79917 63.1434 7.02631ZM62.1107 14.7031C62.5218 14.2472 62.8428 13.7106 63.0555 13.1242C63.2681 12.5378 63.3682 11.9131 63.3499 11.286C63.3703 10.6623 63.2711 10.0407 63.0582 9.45794C62.8454 8.87516 62.5232 8.34309 62.1107 7.89321C61.7223 7.44644 61.2465 7.09283 60.7158 6.85651C60.1851 6.62019 59.612 6.50672 59.0357 6.52387C58.4735 6.51188 57.9155 6.62813 57.4003 6.86456C56.8851 7.101 56.4251 7.45198 56.0521 7.89321C55.2577 8.82258 54.8381 10.0388 54.8817 11.286C54.8422 12.5398 55.2608 13.7621 56.0521 14.7031C56.4295 15.1371 56.8908 15.4819 57.4053 15.7143C57.9198 15.9467 58.4756 16.0614 59.0357 16.0508C59.6102 16.0667 60.1814 15.9549 60.7117 15.7226C61.242 15.4903 61.7193 15.1428 62.1122 14.7031H62.1107Z" fill="#12899D"/>
<path d="M76.9145 7.0266V5.2217H78.6128V17.3499H76.9145V15.5455C76.249 16.7726 74.8948 17.7112 72.8063 17.7112C72.0307 17.7277 71.2605 17.5734 70.5453 17.2583C69.8301 16.9433 69.1859 16.4744 68.6544 15.882C67.5619 14.6301 66.9561 12.9948 66.9561 11.2979C66.9561 9.60104 67.5619 7.96566 68.6544 6.71376C69.185 6.11792 69.8288 5.64521 70.5442 5.3261C71.2597 5.00698 72.0309 4.84852 72.8083 4.86094C74.8948 4.86094 76.2485 5.79946 76.9145 7.0266ZM75.8818 14.7033C76.2929 14.2474 76.6139 13.7109 76.8266 13.1245C77.0392 12.5381 77.1393 11.9134 77.121 11.2863C77.1413 10.6626 77.0421 10.041 76.8293 9.45825C76.6164 8.87548 76.2943 8.3434 75.8818 7.8935C75.4934 7.44674 75.0176 7.09313 74.4869 6.8568C73.9562 6.62048 73.3831 6.50702 72.8068 6.52416C72.2446 6.51221 71.6866 6.62847 71.1714 6.8649C70.6563 7.10134 70.1962 7.4523 69.8232 7.8935C69.0288 8.8229 68.6093 10.0392 68.6528 11.2863C68.6134 12.5401 69.032 13.7623 69.8232 14.7033C70.2006 15.1374 70.6619 15.4821 71.1764 15.7145C71.6909 15.9469 72.2467 16.0617 72.8068 16.0511C73.381 16.0667 73.9518 15.9547 74.4817 15.7224C75.0116 15.4901 75.4886 15.1428 75.8813 14.7033H75.8818Z" fill="#12899D"/>
<path d="M85.7487 17.951L80.5164 0.577238H82.3985L85.9788 12.4168L90.8214 -0.000518799L95.457 12.3683L99.1062 0.576712H100.988L95.6404 17.999L90.7757 5.07711L85.7487 17.951Z" fill="#9FCA7B"/>
<path d="M110.787 7.0266V5.2217H112.485V17.3499H110.787V15.5455C110.121 16.7726 108.767 17.7112 106.679 17.7112C105.903 17.7279 105.133 17.5738 104.417 17.2587C103.702 16.9437 103.057 16.4746 102.525 15.882C101.433 14.6301 100.827 12.9947 100.827 11.2979C100.827 9.60104 101.433 7.96566 102.525 6.71376C103.056 6.11794 103.7 5.64526 104.415 5.32614C105.131 5.00703 105.902 4.84855 106.679 4.86093C108.767 4.86093 110.121 5.79946 110.787 7.0266ZM109.754 14.7033C110.165 14.2474 110.486 13.7109 110.699 13.1245C110.912 12.5381 111.012 11.9134 110.993 11.2863C111.014 10.6626 110.914 10.041 110.702 9.45824C110.489 8.87548 110.167 8.3434 109.754 7.8935C109.366 7.44671 108.89 7.09308 108.359 6.85675C107.829 6.62043 107.256 6.50698 106.679 6.52416C106.117 6.51217 105.559 6.62842 105.044 6.86485C104.529 7.10129 104.069 7.45227 103.696 7.8935C102.901 8.8229 102.482 10.0391 102.525 11.2863C102.486 12.5401 102.904 13.7624 103.696 14.7033C104.073 15.1374 104.534 15.4822 105.049 15.7146C105.563 15.947 106.119 16.0617 106.679 16.0511C107.253 16.0666 107.824 15.9546 108.354 15.7223C108.884 15.49 109.361 15.1427 109.753 14.7033H109.754Z" fill="#9FCA7B"/>
<path d="M124.533 7.02631V0.577232H126.231V17.3496H124.533V15.5452C123.867 16.7723 122.513 17.7109 120.425 17.7109C119.649 17.7276 118.878 17.5735 118.163 17.2584C117.447 16.9434 116.802 16.4744 116.271 15.8817C115.712 15.2716 115.274 14.5511 114.982 13.7621C114.691 12.9731 114.551 12.1313 114.572 11.2855C114.551 10.4433 114.691 9.6052 114.982 8.82018C115.274 8.03515 115.712 7.31895 116.271 6.71347C116.801 6.11749 117.445 5.64471 118.161 5.32559C118.877 5.00646 119.648 4.84808 120.426 4.86064C122.513 4.86064 123.867 5.79917 124.533 7.02631ZM123.5 14.7031C123.911 14.2472 124.232 13.7106 124.445 13.1242C124.658 12.5378 124.758 11.9131 124.739 11.286C124.76 10.6623 124.661 10.0407 124.448 9.45794C124.235 8.87516 123.913 8.34309 123.5 7.89321C123.112 7.44644 122.636 7.09283 122.105 6.85651C121.575 6.62019 121.001 6.50672 120.425 6.52386C119.863 6.51191 119.305 6.62818 118.79 6.86461C118.275 7.10104 117.815 7.452 117.442 7.89321C116.647 8.82261 116.228 10.0389 116.271 11.286C116.232 12.5398 116.65 13.7621 117.442 14.7031C117.819 15.1371 118.28 15.4818 118.795 15.7141C119.31 15.9464 119.865 16.061 120.426 16.0503C121 16.066 121.571 15.954 122.1 15.7218C122.63 15.4896 123.107 15.1424 123.5 14.7031Z" fill="#9FCA7B"/>
<path d="M138.301 7.0266V5.2217H140V17.3499H138.302V15.5455C137.636 16.7726 136.282 17.7112 134.194 17.7112C133.418 17.7279 132.647 17.5738 131.932 17.2587C131.216 16.9437 130.572 16.4747 130.04 15.882C128.947 14.6302 128.341 12.9948 128.341 11.2979C128.341 9.60101 128.947 7.96561 130.04 6.71376C130.57 6.11792 131.214 5.64521 131.93 5.3261C132.645 5.00698 133.416 4.84852 134.194 4.86094C136.283 4.86094 137.636 5.79946 138.301 7.0266ZM137.269 14.7033C137.68 14.2475 138.001 13.7109 138.214 13.1245C138.426 12.5381 138.526 11.9134 138.508 11.2863C138.528 10.6626 138.429 10.041 138.216 9.45823C138.003 8.87546 137.681 8.34338 137.269 7.8935C136.88 7.44674 136.405 7.09313 135.874 6.8568C135.343 6.62048 134.77 6.50702 134.194 6.52416C133.632 6.51221 133.074 6.62847 132.558 6.8649C132.043 7.10134 131.583 7.4523 131.21 7.8935C130.416 8.8229 129.996 10.0392 130.04 11.2863C130 12.5401 130.419 13.7624 131.21 14.7033C131.588 15.1374 132.049 15.4822 132.563 15.7146C133.078 15.947 133.634 16.0617 134.194 16.0511C134.768 16.0668 135.339 15.9548 135.869 15.7225C136.399 15.4902 136.876 15.1429 137.269 14.7033Z" fill="#9FCA7B"/>
<path d="M13.6275 -0.000175265H5.71586C4.27082 -0.000327447 2.87928 0.57304 1.82094 1.60468C0.762597 2.63633 0.115895 4.04978 0.0108197 5.56093C0.0108197 5.58674 0.00780625 5.6136 0.00680166 5.63941C0.00228103 5.73368 -0.000230405 5.82796 -0.000230405 5.92328V7.92463H3.59568V6.33409C3.59584 5.79678 3.78376 5.27816 4.1239 4.87629C4.46404 4.47441 4.93282 4.21715 5.44161 4.15315L5.48631 4.14788C5.56256 4.13945 5.63919 4.13541 5.71586 4.13577C5.75253 4.13577 5.78869 4.13577 5.82435 4.13893H13.5777C13.8529 4.13886 14.1253 4.19561 14.3795 4.30594C14.6337 4.41627 14.8647 4.57803 15.0593 4.78196C15.2539 4.9859 15.4083 5.22803 15.5136 5.49452C15.619 5.76102 15.6732 6.04666 15.6733 6.33514V7.96518H19.2778V5.92276C19.2778 5.14481 19.1316 4.37449 18.8476 3.65578C18.5637 2.93708 18.1474 2.28407 17.6227 1.73405C17.098 1.18404 16.4751 0.74779 15.7896 0.450228C15.1041 0.152666 14.3694 -0.000382791 13.6275 -0.000175265ZM19.2778 10.0345V12.0753C19.2779 12.8533 19.1318 13.6237 18.848 14.3425C18.5641 15.0613 18.1479 15.7144 17.6233 16.2645C17.0986 16.8146 16.4757 17.251 15.7902 17.5486C15.1047 17.8463 14.3699 17.9994 13.628 17.9993H5.71586C4.2708 17.9993 2.87927 17.4259 1.82087 16.3943C0.762471 15.3627 0.11563 13.9494 0.0103177 12.4382C0.0103177 12.4124 0.010318 12.3855 0.00629964 12.3597C0.00177901 12.2654 -0.000732422 12.1712 -0.000732422 12.0758V10.0745H3.59468V11.6656C3.59482 12.2028 3.78267 12.7213 4.1227 13.1232C4.46274 13.5251 4.93141 13.7824 5.4401 13.8465C5.45467 13.8465 5.46974 13.8507 5.48481 13.8523C5.56086 13.8612 5.63733 13.8656 5.71385 13.8655C5.75001 13.8655 5.78668 13.8655 5.82235 13.8623H7.83152V10.1609H11.443V13.8613H13.5757C14.1314 13.8613 14.6644 13.6298 15.0573 13.2179C15.4503 12.8059 15.6712 12.2472 15.6713 11.6645V10.0345H19.2778Z" fill="url(#paint0_linear)"/>
<defs>
<linearGradient id="paint0_linear" x1="14.7473" y1="18.2513" x2="5.62957" y2="-0.743604" gradientUnits="userSpaceOnUse">
<stop stop-color="#9FCB7C"/>
<stop offset="1" stop-color="#0D788C"/>
</linearGradient>
</defs>
</svg>
